<mxfile host="app.diagrams.net" agent="Mozilla/5.0 (Windows NT 10.0; Win64; x64) AppleWebKit/537.36 (KHTML, like Gecko) Chrome/137.0.0.0 Safari/537.36" version="27.1.6">
  <diagram name="Page-1" id="a7904f86-f2b4-8e86-fa97-74104820619b">
    <mxGraphModel dx="1281" dy="1377" grid="0" gridSize="10" guides="1" tooltips="1" connect="1" arrows="1" fold="1" page="1" pageScale="1" pageWidth="1100" pageHeight="850" background="none" math="0" shadow="0">
      <root>
        <mxCell id="0" />
        <mxCell id="1" parent="0" />
        <mxCell id="_FVJ82GAcGzXgL0HY7rz-6" value="" style="group;labelBackgroundColor=none;" parent="1" vertex="1" connectable="0">
          <mxGeometry x="810" y="70" width="250" height="260" as="geometry" />
        </mxCell>
        <mxCell id="_FVJ82GAcGzXgL0HY7rz-15" value="" style="group;labelBackgroundColor=none;" parent="_FVJ82GAcGzXgL0HY7rz-6" vertex="1" connectable="0">
          <mxGeometry width="250" height="260" as="geometry" />
        </mxCell>
        <mxCell id="_FVJ82GAcGzXgL0HY7rz-7" value="&lt;p style=&quot;margin: 0px ; margin-top: 4px ; text-align: center ; text-decoration: underline&quot;&gt;&lt;b&gt;&lt;font style=&quot;font-size: 18px;&quot;&gt;Tipos_carroceria&lt;/font&gt;&lt;/b&gt;&lt;/p&gt;&lt;hr&gt;&lt;p style=&quot;margin: 0px ; margin-left: 8px&quot;&gt;&lt;font style=&quot;font-size: 12px;&quot;&gt;id: INT (PK)&lt;/font&gt;&lt;/p&gt;&lt;p style=&quot;margin: 0px ; margin-left: 8px&quot;&gt;&lt;font size=&quot;3&quot;&gt;tipo_carroceria: VARCHAR(255)&lt;/font&gt;&lt;/p&gt;&lt;p style=&quot;margin: 0px ; margin-left: 8px&quot;&gt;&lt;font size=&quot;3&quot;&gt;created_at: TIMESTAMP&lt;/font&gt;&lt;/p&gt;&lt;p style=&quot;margin: 0px ; margin-left: 8px&quot;&gt;&lt;font size=&quot;3&quot;&gt;&lt;br&gt;&lt;/font&gt;&lt;/p&gt;&lt;p style=&quot;margin: 0px ; margin-left: 8px&quot;&gt;&lt;font size=&quot;3&quot;&gt;&lt;br&gt;&lt;/font&gt;&lt;/p&gt;&lt;p style=&quot;margin: 0px ; margin-left: 8px&quot;&gt;&lt;font size=&quot;3&quot;&gt;&lt;br&gt;&lt;/font&gt;&lt;/p&gt;&lt;p style=&quot;margin: 0px ; margin-left: 8px&quot;&gt;&lt;font size=&quot;3&quot;&gt;&lt;br&gt;&lt;/font&gt;&lt;/p&gt;&lt;p style=&quot;margin: 0px ; margin-left: 8px&quot;&gt;&lt;font size=&quot;3&quot;&gt;PRIMARY&lt;/font&gt;&lt;/p&gt;&lt;p style=&quot;margin: 0px ; margin-left: 8px&quot;&gt;&lt;font size=&quot;3&quot;&gt;&lt;br&gt;&lt;/font&gt;&lt;/p&gt;&lt;p style=&quot;margin: 0px ; margin-left: 8px&quot;&gt;&lt;font size=&quot;3&quot;&gt;tipo_carroceria&lt;/font&gt;&lt;/p&gt;" style="verticalAlign=top;align=left;overflow=fill;fontSize=12;fontFamily=Helvetica;html=1;rounded=0;shadow=0;comic=0;labelBackgroundColor=none;strokeWidth=1;" parent="_FVJ82GAcGzXgL0HY7rz-15" vertex="1">
          <mxGeometry width="250" height="260" as="geometry" />
        </mxCell>
        <mxCell id="_FVJ82GAcGzXgL0HY7rz-8" value="Indexes" style="html=1;whiteSpace=wrap;labelBackgroundColor=none;" parent="_FVJ82GAcGzXgL0HY7rz-15" vertex="1">
          <mxGeometry y="120" width="250" height="19.17" as="geometry" />
        </mxCell>
        <mxCell id="_FVJ82GAcGzXgL0HY7rz-13" value="" style="group;labelBackgroundColor=none;" parent="1" vertex="1" connectable="0">
          <mxGeometry x="140" y="250" width="220" height="575" as="geometry" />
        </mxCell>
        <mxCell id="_FVJ82GAcGzXgL0HY7rz-5" value="" style="group;labelBackgroundColor=none;" parent="_FVJ82GAcGzXgL0HY7rz-13" vertex="1" connectable="0">
          <mxGeometry x="-90" y="255" width="220" height="310" as="geometry" />
        </mxCell>
        <mxCell id="_FVJ82GAcGzXgL0HY7rz-3" value="&lt;p style=&quot;margin: 0px ; margin-top: 4px ; text-align: center ; text-decoration: underline&quot;&gt;&lt;b&gt;&lt;font style=&quot;font-size: 18px;&quot;&gt;Ubicaciones&lt;/font&gt;&lt;/b&gt;&lt;/p&gt;&lt;hr&gt;&lt;p style=&quot;margin: 0px ; margin-left: 8px&quot;&gt;&lt;font style=&quot;font-size: 12px;&quot;&gt;id: INT (PK)&lt;/font&gt;&lt;/p&gt;&lt;p style=&quot;margin: 0px ; margin-left: 8px&quot;&gt;&lt;font size=&quot;3&quot;&gt;ubicacion: VARCHAR(255)&lt;/font&gt;&lt;/p&gt;&lt;p style=&quot;margin: 0px ; margin-left: 8px&quot;&gt;&lt;font size=&quot;3&quot;&gt;latitud: DECIMAL(11,8)&lt;/font&gt;&lt;/p&gt;&lt;p style=&quot;margin: 0px ; margin-left: 8px&quot;&gt;&lt;font size=&quot;3&quot;&gt;longitud: DECIMAL(11,8)&lt;/font&gt;&lt;/p&gt;&lt;p style=&quot;margin: 0px ; margin-left: 8px&quot;&gt;&lt;font size=&quot;3&quot;&gt;created_at: TIMESTAMP&lt;/font&gt;&lt;/p&gt;&lt;p style=&quot;margin: 0px ; margin-left: 8px&quot;&gt;&lt;font size=&quot;3&quot;&gt;updated_at: TIMESTAMP&lt;/font&gt;&lt;/p&gt;&lt;p style=&quot;margin: 0px ; margin-left: 8px&quot;&gt;&lt;font size=&quot;3&quot;&gt;&lt;br&gt;&lt;/font&gt;&lt;/p&gt;&lt;p style=&quot;margin: 0px ; margin-left: 8px&quot;&gt;&lt;font size=&quot;3&quot;&gt;&lt;br&gt;&lt;/font&gt;&lt;/p&gt;&lt;p style=&quot;margin: 0px ; margin-left: 8px&quot;&gt;&lt;font size=&quot;3&quot;&gt;&lt;br&gt;&lt;/font&gt;&lt;/p&gt;&lt;p style=&quot;margin: 0px ; margin-left: 8px&quot;&gt;&lt;font size=&quot;3&quot;&gt;&lt;br&gt;&lt;/font&gt;&lt;/p&gt;&lt;p style=&quot;margin: 0px ; margin-left: 8px&quot;&gt;&lt;font size=&quot;3&quot;&gt;PRIMARY&lt;/font&gt;&lt;/p&gt;&lt;p style=&quot;margin: 0px ; margin-left: 8px&quot;&gt;&lt;font size=&quot;3&quot;&gt;&lt;br&gt;&lt;/font&gt;&lt;/p&gt;&lt;p style=&quot;margin: 0px ; margin-left: 8px&quot;&gt;&lt;font size=&quot;3&quot;&gt;ubicacion&lt;/font&gt;&lt;/p&gt;" style="verticalAlign=top;align=left;overflow=fill;fontSize=12;fontFamily=Helvetica;html=1;rounded=0;shadow=0;comic=0;labelBackgroundColor=none;strokeWidth=1;" parent="_FVJ82GAcGzXgL0HY7rz-5" vertex="1">
          <mxGeometry x="-30" width="250" height="310" as="geometry" />
        </mxCell>
        <mxCell id="_FVJ82GAcGzXgL0HY7rz-4" value="Indexes" style="html=1;whiteSpace=wrap;labelBackgroundColor=none;" parent="_FVJ82GAcGzXgL0HY7rz-5" vertex="1">
          <mxGeometry x="-30" y="165" width="250" height="20" as="geometry" />
        </mxCell>
        <mxCell id="_FVJ82GAcGzXgL0HY7rz-14" value="" style="group;labelBackgroundColor=none;" parent="_FVJ82GAcGzXgL0HY7rz-13" vertex="1" connectable="0">
          <mxGeometry x="-100" y="-50" width="250" height="260" as="geometry" />
        </mxCell>
        <mxCell id="I1b7FFAWDFC0MGGDvp9g-2" value="" style="group;labelBackgroundColor=none;" parent="_FVJ82GAcGzXgL0HY7rz-14" vertex="1" connectable="0">
          <mxGeometry x="-14" y="-30.22999999999999" width="240" height="260" as="geometry" />
        </mxCell>
        <mxCell id="24794b860abc3c2d-23" value="&lt;p style=&quot;margin: 0px ; margin-top: 4px ; text-align: center ; text-decoration: underline&quot;&gt;&lt;b&gt;&lt;font style=&quot;font-size: 18px;&quot;&gt;Combustibles&lt;/font&gt;&lt;/b&gt;&lt;/p&gt;&lt;hr&gt;&lt;p style=&quot;margin: 0px ; margin-left: 8px&quot;&gt;&lt;font size=&quot;3&quot;&gt;id: INT (PK)&lt;/font&gt;&lt;/p&gt;&lt;p style=&quot;margin: 0px ; margin-left: 8px&quot;&gt;&lt;font size=&quot;3&quot;&gt;combustible: VARCHAR(255)&lt;/font&gt;&lt;/p&gt;&lt;p style=&quot;margin: 0px ; margin-left: 8px&quot;&gt;&lt;font size=&quot;3&quot;&gt;combustibles&lt;/font&gt;&lt;/p&gt;&lt;p style=&quot;margin: 0px ; margin-left: 8px&quot;&gt;&lt;font size=&quot;3&quot;&gt;&lt;br&gt;&lt;/font&gt;&lt;/p&gt;&lt;p style=&quot;margin: 0px ; margin-left: 8px&quot;&gt;&lt;font size=&quot;3&quot;&gt;&lt;br&gt;&lt;/font&gt;&lt;/p&gt;&lt;p style=&quot;margin: 0px ; margin-left: 8px&quot;&gt;&lt;font size=&quot;3&quot;&gt;&lt;br&gt;&lt;/font&gt;&lt;/p&gt;&lt;p style=&quot;margin: 0px ; margin-left: 8px&quot;&gt;&lt;font size=&quot;3&quot;&gt;&lt;br&gt;&lt;/font&gt;&lt;/p&gt;&lt;p style=&quot;margin: 0px ; margin-left: 8px&quot;&gt;&lt;font size=&quot;3&quot;&gt;PRIMARY&lt;/font&gt;&lt;/p&gt;&lt;p style=&quot;margin: 0px ; margin-left: 8px&quot;&gt;&lt;font size=&quot;3&quot;&gt;&lt;br&gt;&lt;/font&gt;&lt;/p&gt;&lt;p style=&quot;margin: 0px ; margin-left: 8px&quot;&gt;&lt;font size=&quot;3&quot;&gt;combustible&lt;/font&gt;&lt;/p&gt;" style="verticalAlign=top;align=left;overflow=fill;fontSize=12;fontFamily=Helvetica;html=1;rounded=0;shadow=0;comic=0;labelBackgroundColor=none;strokeWidth=1;" parent="I1b7FFAWDFC0MGGDvp9g-2" vertex="1">
          <mxGeometry width="240" height="260" as="geometry" />
        </mxCell>
        <mxCell id="_FVJ82GAcGzXgL0HY7rz-2" value="Indexes" style="html=1;whiteSpace=wrap;labelBackgroundColor=none;" parent="I1b7FFAWDFC0MGGDvp9g-2" vertex="1">
          <mxGeometry x="1.9399999999999995" y="119.99999999999999" width="236.11111111111114" height="20" as="geometry" />
        </mxCell>
        <mxCell id="_FVJ82GAcGzXgL0HY7rz-16" value="" style="group;labelBackgroundColor=none;" parent="1" vertex="1" connectable="0">
          <mxGeometry x="830" y="310" width="230" height="408.33" as="geometry" />
        </mxCell>
        <mxCell id="_FVJ82GAcGzXgL0HY7rz-11" value="&lt;p style=&quot;margin: 0px ; margin-top: 4px ; text-align: center ; text-decoration: underline&quot;&gt;&lt;b&gt;&lt;font style=&quot;font-size: 18px;&quot;&gt;Transmisiones&lt;/font&gt;&lt;/b&gt;&lt;/p&gt;&lt;hr&gt;&lt;p style=&quot;margin: 0px ; margin-left: 8px&quot;&gt;&lt;font style=&quot;font-size: 12px;&quot;&gt;id: INT (PK)&lt;/font&gt;&lt;/p&gt;&lt;p style=&quot;margin: 0px ; margin-left: 8px&quot;&gt;&lt;font size=&quot;3&quot;&gt;transmision: VARCHAR(255)&lt;/font&gt;&lt;/p&gt;&lt;p style=&quot;margin: 0px ; margin-left: 8px&quot;&gt;&lt;font size=&quot;3&quot;&gt;transmisiones&lt;/font&gt;&lt;/p&gt;&lt;p style=&quot;margin: 0px ; margin-left: 8px&quot;&gt;&lt;font size=&quot;3&quot;&gt;&lt;br&gt;&lt;/font&gt;&lt;/p&gt;&lt;p style=&quot;margin: 0px ; margin-left: 8px&quot;&gt;&lt;font size=&quot;3&quot;&gt;&lt;br&gt;&lt;/font&gt;&lt;/p&gt;&lt;p style=&quot;margin: 0px ; margin-left: 8px&quot;&gt;&lt;font size=&quot;3&quot;&gt;&lt;br&gt;&lt;/font&gt;&lt;/p&gt;&lt;p style=&quot;margin: 0px ; margin-left: 8px&quot;&gt;&lt;font size=&quot;3&quot;&gt;&lt;br&gt;&lt;/font&gt;&lt;/p&gt;&lt;p style=&quot;margin: 0px ; margin-left: 8px&quot;&gt;&lt;font size=&quot;3&quot;&gt;PRIMARY&lt;/font&gt;&lt;/p&gt;&lt;p style=&quot;margin: 0px ; margin-left: 8px&quot;&gt;&lt;font size=&quot;3&quot;&gt;&lt;br&gt;&lt;/font&gt;&lt;/p&gt;&lt;p style=&quot;margin: 0px ; margin-left: 8px&quot;&gt;&lt;font size=&quot;3&quot;&gt;transmision&lt;/font&gt;&lt;/p&gt;" style="verticalAlign=top;align=left;overflow=fill;fontSize=12;fontFamily=Helvetica;html=1;rounded=0;shadow=0;comic=0;labelBackgroundColor=none;strokeWidth=1;" parent="_FVJ82GAcGzXgL0HY7rz-16" vertex="1">
          <mxGeometry x="-20" y="148.32999999999998" width="230" height="260" as="geometry" />
        </mxCell>
        <mxCell id="_FVJ82GAcGzXgL0HY7rz-12" value="Indexes" style="html=1;whiteSpace=wrap;labelBackgroundColor=none;" parent="_FVJ82GAcGzXgL0HY7rz-16" vertex="1">
          <mxGeometry x="-20" y="270" width="230" height="19.17" as="geometry" />
        </mxCell>
        <mxCell id="_FVJ82GAcGzXgL0HY7rz-17" style="edgeStyle=orthogonalEdgeStyle;rounded=0;orthogonalLoop=1;jettySize=auto;html=1;exitX=1;exitY=0.25;exitDx=0;exitDy=0;entryX=0.013;entryY=0.239;entryDx=0;entryDy=0;entryPerimeter=0;startArrow=ERmandOne;startFill=0;endArrow=ERmany;endFill=0;labelBackgroundColor=none;fontColor=default;" parent="1" source="24794b860abc3c2d-23" target="24794b860abc3c2d-1" edge="1">
          <mxGeometry relative="1" as="geometry" />
        </mxCell>
        <mxCell id="_FVJ82GAcGzXgL0HY7rz-18" style="edgeStyle=orthogonalEdgeStyle;rounded=0;orthogonalLoop=1;jettySize=auto;html=1;exitX=1;exitY=0.25;exitDx=0;exitDy=0;entryX=0.005;entryY=0.292;entryDx=0;entryDy=0;entryPerimeter=0;startArrow=ERmandOne;startFill=0;endArrow=ERmany;endFill=0;labelBackgroundColor=none;fontColor=default;" parent="1" source="_FVJ82GAcGzXgL0HY7rz-3" target="24794b860abc3c2d-1" edge="1">
          <mxGeometry relative="1" as="geometry" />
        </mxCell>
        <mxCell id="I1b7FFAWDFC0MGGDvp9g-6" value="" style="group;labelBackgroundColor=none;" parent="1" vertex="1" connectable="0">
          <mxGeometry x="410" y="45" width="280" height="760" as="geometry" />
        </mxCell>
        <mxCell id="24794b860abc3c2d-1" value="&lt;p style=&quot;margin: 0px ; margin-top: 4px ; text-align: center ; text-decoration: underline&quot;&gt;&lt;b&gt;&lt;font style=&quot;font-size: 18px;&quot;&gt;Vehículos&lt;/font&gt;&lt;/b&gt;&lt;/p&gt;&lt;hr&gt;&lt;p style=&quot;margin: 0px ; margin-left: 8px&quot;&gt;&lt;font style=&quot;font-size: 12px;&quot;&gt;id: INT (PK)&lt;/font&gt;&lt;/p&gt;&lt;p style=&quot;margin: 0px ; margin-left: 8px&quot;&gt;&lt;font size=&quot;3&quot;&gt;id_extraccion: VARCHAR(255)&lt;/font&gt;&lt;/p&gt;&lt;p style=&quot;margin: 0px ; margin-left: 8px&quot;&gt;&lt;font size=&quot;3&quot;&gt;timestamp_extraccion: TIMESTAMP&lt;/font&gt;&lt;/p&gt;&lt;p style=&quot;margin: 0px ; margin-left: 8px&quot;&gt;&lt;font size=&quot;3&quot;&gt;marca: VARCHAR(255)&lt;/font&gt;&lt;/p&gt;&lt;p style=&quot;margin: 0px ; margin-left: 8px&quot;&gt;&lt;font size=&quot;3&quot;&gt;modelo: VARCHAR(255)&lt;/font&gt;&lt;/p&gt;&lt;p style=&quot;margin: 0px ; margin-left: 8px&quot;&gt;&lt;font size=&quot;3&quot;&gt;precio_contado: DECIMAL(12,2)&lt;/font&gt;&lt;/p&gt;&lt;p style=&quot;margin: 0px ; margin-left: 8px&quot;&gt;&lt;font size=&quot;3&quot;&gt;año_matriculacion: INT&lt;/font&gt;&lt;/p&gt;&lt;p style=&quot;margin: 0px ; margin-left: 8px&quot;&gt;&lt;font size=&quot;3&quot;&gt;combustible_id: INT (FK)&lt;/font&gt;&lt;/p&gt;&lt;p style=&quot;margin: 0px ; margin-left: 8px&quot;&gt;&lt;font size=&quot;3&quot;&gt;kilometraje: INT&lt;/font&gt;&lt;/p&gt;&lt;p style=&quot;margin: 0px ; margin-left: 8px&quot;&gt;&lt;font size=&quot;3&quot;&gt;ubicacion_id: INT (FK)&lt;/font&gt;&lt;/p&gt;&lt;p style=&quot;margin: 0px ; margin-left: 8px&quot;&gt;&lt;font size=&quot;3&quot;&gt;latitud: DECIMAL(11,8)&lt;/font&gt;&lt;/p&gt;&lt;p style=&quot;margin: 0px ; margin-left: 8px&quot;&gt;&lt;font size=&quot;3&quot;&gt;longitud: DECIMAL(11,8)&lt;/font&gt;&lt;/p&gt;&lt;p style=&quot;margin: 0px ; margin-left: 8px&quot;&gt;&lt;font size=&quot;3&quot;&gt;garantia: VARCHAR(100)&lt;/font&gt;&lt;/p&gt;&lt;p style=&quot;margin: 0px ; margin-left: 8px&quot;&gt;&lt;font size=&quot;3&quot;&gt;transmision_id: INT (FK)&lt;/font&gt;&lt;/p&gt;&lt;p style=&quot;margin: 0px ; margin-left: 8px&quot;&gt;&lt;font size=&quot;3&quot;&gt;potencia_or: INT&lt;/font&gt;&lt;/p&gt;&lt;p style=&quot;margin: 0px ; margin-left: 8px&quot;&gt;&lt;font size=&quot;3&quot;&gt;puertas: INT&lt;/font&gt;&lt;/p&gt;&lt;p style=&quot;margin: 0px ; margin-left: 8px&quot;&gt;&lt;font size=&quot;3&quot;&gt;asientos: INT&lt;/font&gt;&lt;/p&gt;&lt;p style=&quot;margin: 0px ; margin-left: 8px&quot;&gt;&lt;font size=&quot;3&quot;&gt;tipo_carroceria_id: INT (FK)&lt;/font&gt;&lt;/p&gt;&lt;p style=&quot;margin: 0px ; margin-left: 8px&quot;&gt;&lt;font size=&quot;3&quot;&gt;mes_matriculacion: INT&lt;/font&gt;&lt;/p&gt;&lt;p style=&quot;margin: 0px ; margin-left: 8px&quot;&gt;&lt;font size=&quot;3&quot;&gt;financiacion_disponible: TINYINT&lt;/font&gt;&lt;/p&gt;&lt;p style=&quot;margin: 0px ; margin-left: 8px&quot;&gt;&lt;font size=&quot;3&quot;&gt;es_km0: TINYINT&lt;/font&gt;&lt;/p&gt;&lt;p style=&quot;margin: 0px ; margin-left: 8px&quot;&gt;&lt;font size=&quot;3&quot;&gt;es_demo: TINYINT&lt;/font&gt;&lt;/p&gt;&lt;p style=&quot;margin: 0px ; margin-left: 8px&quot;&gt;&lt;font size=&quot;3&quot;&gt;created_at: TIMESTAMP&lt;/font&gt;&lt;/p&gt;&lt;p style=&quot;margin: 0px ; margin-left: 8px&quot;&gt;&lt;font size=&quot;3&quot;&gt;updated_at: TIMESTAMP&lt;/font&gt;&lt;/p&gt;&lt;p style=&quot;margin: 0px ; margin-left: 8px&quot;&gt;&lt;font size=&quot;3&quot;&gt;&lt;br&gt;&lt;/font&gt;&lt;/p&gt;&lt;p style=&quot;margin: 0px ; margin-left: 8px&quot;&gt;&lt;font size=&quot;3&quot;&gt;&lt;br&gt;&lt;/font&gt;&lt;/p&gt;&lt;p style=&quot;margin: 0px ; margin-left: 8px&quot;&gt;&lt;font size=&quot;3&quot;&gt;&lt;br&gt;&lt;/font&gt;&lt;/p&gt;&lt;p style=&quot;margin: 0px ; margin-left: 8px&quot;&gt;&lt;font size=&quot;3&quot;&gt;PRIMARY&lt;/font&gt;&lt;/p&gt;&lt;p style=&quot;margin: 0px ; margin-left: 8px&quot;&gt;&lt;font size=&quot;3&quot;&gt;&lt;br&gt;&lt;/font&gt;&lt;/p&gt;&lt;p style=&quot;margin: 0px ; margin-left: 8px&quot;&gt;&lt;font size=&quot;3&quot;&gt;ubicacion_id&lt;/font&gt;&lt;/p&gt;&lt;p style=&quot;margin: 0px ; margin-left: 8px&quot;&gt;&lt;font size=&quot;3&quot;&gt;tipo_carroceria_id&lt;/font&gt;&lt;/p&gt;&lt;p style=&quot;margin: 0px ; margin-left: 8px&quot;&gt;&lt;font size=&quot;3&quot;&gt;combustible_id&lt;/font&gt;&lt;/p&gt;&lt;p style=&quot;margin: 0px ; margin-left: 8px&quot;&gt;&lt;font size=&quot;3&quot;&gt;transmision_id&lt;/font&gt;&lt;/p&gt;&lt;p style=&quot;margin: 0px ; margin-left: 8px&quot;&gt;&lt;font size=&quot;3&quot;&gt;idx_marca&lt;/font&gt;&lt;/p&gt;&lt;p style=&quot;margin: 0px ; margin-left: 8px&quot;&gt;&lt;font size=&quot;3&quot;&gt;idx_precio&lt;/font&gt;&lt;/p&gt;&lt;p style=&quot;margin: 0px ; margin-left: 8px&quot;&gt;&lt;font size=&quot;3&quot;&gt;idx_kilometraje&lt;/font&gt;&lt;/p&gt;&lt;p style=&quot;margin: 0px ; margin-left: 8px&quot;&gt;&lt;font size=&quot;3&quot;&gt;idx_año_matriculacion&lt;/font&gt;&lt;/p&gt;&lt;div&gt;&lt;br&gt;&lt;/div&gt;" style="verticalAlign=top;align=left;overflow=fill;fontSize=12;fontFamily=Helvetica;html=1;rounded=0;shadow=0;comic=0;labelBackgroundColor=none;strokeWidth=1;" parent="I1b7FFAWDFC0MGGDvp9g-6" vertex="1">
          <mxGeometry width="280" height="760" as="geometry" />
        </mxCell>
        <mxCell id="_FVJ82GAcGzXgL0HY7rz-1" value="Indexes" style="html=1;whiteSpace=wrap;labelBackgroundColor=none;" parent="I1b7FFAWDFC0MGGDvp9g-6" vertex="1">
          <mxGeometry y="515" width="280" height="20" as="geometry" />
        </mxCell>
        <mxCell id="I1b7FFAWDFC0MGGDvp9g-9" style="edgeStyle=orthogonalEdgeStyle;rounded=0;orthogonalLoop=1;jettySize=auto;html=1;exitX=0;exitY=0.25;exitDx=0;exitDy=0;entryX=1;entryY=0.5;entryDx=0;entryDy=0;startArrow=ERmandOne;startFill=0;endArrow=ERmany;endFill=0;labelBackgroundColor=none;fontColor=default;" parent="1" source="_FVJ82GAcGzXgL0HY7rz-7" target="24794b860abc3c2d-1" edge="1">
          <mxGeometry relative="1" as="geometry">
            <mxPoint x="650" y="317" as="sourcePoint" />
            <mxPoint x="798" y="309" as="targetPoint" />
          </mxGeometry>
        </mxCell>
        <mxCell id="I1b7FFAWDFC0MGGDvp9g-10" style="edgeStyle=orthogonalEdgeStyle;rounded=0;orthogonalLoop=1;jettySize=auto;html=1;exitX=0;exitY=0.25;exitDx=0;exitDy=0;entryX=1;entryY=0.381;entryDx=0;entryDy=0;entryPerimeter=0;startArrow=ERmandOne;startFill=0;endArrow=ERmany;endFill=0;labelBackgroundColor=none;fontColor=default;" parent="1" source="_FVJ82GAcGzXgL0HY7rz-11" target="24794b860abc3c2d-1" edge="1">
          <mxGeometry relative="1" as="geometry">
            <mxPoint x="720" y="598" as="sourcePoint" />
            <mxPoint x="868" y="590" as="targetPoint" />
            <Array as="points">
              <mxPoint x="770" y="523" />
              <mxPoint x="770" y="335" />
            </Array>
          </mxGeometry>
        </mxCell>
        <mxCell id="vzP9rtswOIvXhKSuJMFD-1" value="&lt;font style=&quot;font-size: 14px;&quot;&gt;Una base de datos es un sistema organizado para almacenar, gestionar y recuperar información de manera eficiente. Consiste en una colección estructurada de datos que se almacenan electrónicamente en un sistema informático, permitiendo un acceso rápido y seguro a la información&lt;/font&gt;" style="rounded=0;whiteSpace=wrap;html=1;align=left;" parent="1" vertex="1">
          <mxGeometry x="15" y="-105" width="1032" height="60" as="geometry" />
        </mxCell>
        <mxCell id="-_h2mMWwLCTI-qeB6oyW-1" value="&lt;p data-end=&quot;242&quot; data-start=&quot;116&quot;&gt;Esta tabla almacena las distintas &lt;strong data-end=&quot;180&quot; data-start=&quot;150&quot;&gt;localizaciones geográficas&lt;/strong&gt; (ciudades, regiones, etc.) donde se encuentran los vehículos.&lt;/p&gt;&lt;ul data-end=&quot;504&quot; data-start=&quot;244&quot;&gt;&lt;li data-end=&quot;291&quot; data-start=&quot;244&quot;&gt;&lt;p data-end=&quot;291&quot; data-start=&quot;246&quot;&gt;&lt;strong data-end=&quot;261&quot; data-start=&quot;246&quot;&gt;&lt;code data-end=&quot;259&quot; data-start=&quot;248&quot;&gt;ubicacion&lt;/code&gt;&lt;/strong&gt;: nombre de la ciudad o lugar.&lt;/p&gt;&lt;/li&gt;&lt;li data-end=&quot;411&quot; data-start=&quot;292&quot;&gt;&lt;p data-end=&quot;411&quot; data-start=&quot;294&quot;&gt;&lt;strong data-end=&quot;320&quot; data-start=&quot;294&quot;&gt;&lt;code data-end=&quot;305&quot; data-start=&quot;296&quot;&gt;latitud&lt;/code&gt; y &lt;code data-end=&quot;318&quot; data-start=&quot;308&quot;&gt;longitud&lt;/code&gt;&lt;/strong&gt;: coordenadas geográficas para posibles funcionalidades como mapas o cálculos de distancia&lt;/p&gt;&lt;/li&gt;&lt;li data-end=&quot;411&quot; data-start=&quot;292&quot;&gt;&lt;p data-end=&quot;411&quot; data-start=&quot;294&quot;&gt;&lt;strong style=&quot;background-color: transparent; color: light-dark(rgb(0, 0, 0), rgb(255, 255, 255));&quot; data-end=&quot;444&quot; data-start=&quot;414&quot;&gt;&lt;code data-end=&quot;428&quot; data-start=&quot;416&quot;&gt;created_at&lt;/code&gt;, &lt;code data-end=&quot;442&quot; data-start=&quot;430&quot;&gt;updated_at&lt;/code&gt;&lt;/strong&gt;&lt;span style=&quot;background-color: transparent; color: light-dark(rgb(0, 0, 0), rgb(255, 255, 255));&quot;&gt;: control de fechas de creación y modificación del registro.&lt;/span&gt;&lt;/p&gt;&lt;/li&gt;&lt;/ul&gt;" style="rounded=0;whiteSpace=wrap;html=1;" vertex="1" parent="1">
          <mxGeometry x="10" y="843" width="245" height="325" as="geometry" />
        </mxCell>
        <mxCell id="-_h2mMWwLCTI-qeB6oyW-2" value="&lt;p data-end=&quot;1073&quot; data-start=&quot;1012&quot;&gt;Define los &lt;strong data-end=&quot;1047&quot; data-start=&quot;1023&quot;&gt;tipos de transmisión&lt;/strong&gt;: Manual, Automática, etc.&lt;/p&gt;&lt;ul data-end=&quot;1148&quot; data-start=&quot;1075&quot;&gt;&lt;li data-end=&quot;1120&quot; data-start=&quot;1075&quot;&gt;&lt;p data-end=&quot;1120&quot; data-start=&quot;1077&quot;&gt;&lt;strong data-end=&quot;1094&quot; data-start=&quot;1077&quot;&gt;&lt;code data-end=&quot;1092&quot; data-start=&quot;1079&quot;&gt;transmision&lt;/code&gt;&lt;/strong&gt;: tipo de caja de cambios.&lt;/p&gt;&lt;/li&gt;&lt;li data-end=&quot;1148&quot; data-start=&quot;1121&quot;&gt;&lt;p data-end=&quot;1148&quot; data-start=&quot;1123&quot;&gt;Valor único por registro.&lt;/p&gt;&lt;/li&gt;&lt;/ul&gt;" style="rounded=0;whiteSpace=wrap;html=1;" vertex="1" parent="1">
          <mxGeometry x="830" y="733" width="246" height="172" as="geometry" />
        </mxCell>
        <mxCell id="-_h2mMWwLCTI-qeB6oyW-3" value="&lt;p data-end=&quot;1278&quot; data-start=&quot;1174&quot;&gt;Es la &lt;strong data-end=&quot;1199&quot; data-start=&quot;1180&quot;&gt;tabla principal&lt;/strong&gt;, donde se almacena toda la información relevante de los vehículos disponibles.&lt;/p&gt;&lt;p data-end=&quot;1278&quot; data-start=&quot;1174&quot;&gt;&lt;strong style=&quot;background-color: transparent; color: light-dark(rgb(0, 0, 0), rgb(255, 255, 255));&quot; data-end=&quot;1301&quot; data-start=&quot;1282&quot;&gt;Datos generales&lt;/strong&gt;&lt;span style=&quot;background-color: transparent; color: light-dark(rgb(0, 0, 0), rgb(255, 255, 255));&quot;&gt;: &lt;/span&gt;&lt;code style=&quot;background-color: transparent; color: light-dark(rgb(0, 0, 0), rgb(255, 255, 255));&quot; data-end=&quot;1310&quot; data-start=&quot;1303&quot;&gt;marca&lt;/code&gt;&lt;span style=&quot;background-color: transparent; color: light-dark(rgb(0, 0, 0), rgb(255, 255, 255));&quot;&gt;, &lt;/span&gt;&lt;code style=&quot;background-color: transparent; color: light-dark(rgb(0, 0, 0), rgb(255, 255, 255));&quot; data-end=&quot;1320&quot; data-start=&quot;1312&quot;&gt;modelo&lt;/code&gt;&lt;span style=&quot;background-color: transparent; color: light-dark(rgb(0, 0, 0), rgb(255, 255, 255));&quot;&gt;, &lt;/span&gt;&lt;code style=&quot;background-color: transparent; color: light-dark(rgb(0, 0, 0), rgb(255, 255, 255));&quot; data-end=&quot;1338&quot; data-start=&quot;1322&quot;&gt;precio_contado&lt;/code&gt;&lt;span style=&quot;background-color: transparent; color: light-dark(rgb(0, 0, 0), rgb(255, 255, 255));&quot;&gt;, &lt;/span&gt;&lt;code style=&quot;background-color: transparent; color: light-dark(rgb(0, 0, 0), rgb(255, 255, 255));&quot; data-end=&quot;1353&quot; data-start=&quot;1340&quot;&gt;kilometraje&lt;/code&gt;&lt;span style=&quot;background-color: transparent; color: light-dark(rgb(0, 0, 0), rgb(255, 255, 255));&quot;&gt;, &lt;/span&gt;&lt;code style=&quot;background-color: transparent; color: light-dark(rgb(0, 0, 0), rgb(255, 255, 255));&quot; data-end=&quot;1368&quot; data-start=&quot;1355&quot;&gt;potencia_cv&lt;/code&gt;&lt;span style=&quot;background-color: transparent; color: light-dark(rgb(0, 0, 0), rgb(255, 255, 255));&quot;&gt;, &lt;/span&gt;&lt;code style=&quot;background-color: transparent; color: light-dark(rgb(0, 0, 0), rgb(255, 255, 255));&quot; data-end=&quot;1379&quot; data-start=&quot;1370&quot;&gt;puertas&lt;/code&gt;&lt;span style=&quot;background-color: transparent; color: light-dark(rgb(0, 0, 0), rgb(255, 255, 255));&quot;&gt;, &lt;/span&gt;&lt;code style=&quot;background-color: transparent; color: light-dark(rgb(0, 0, 0), rgb(255, 255, 255));&quot; data-end=&quot;1391&quot; data-start=&quot;1381&quot;&gt;asientos&lt;/code&gt;&lt;span style=&quot;background-color: transparent; color: light-dark(rgb(0, 0, 0), rgb(255, 255, 255));&quot;&gt;, &lt;/span&gt;&lt;code style=&quot;background-color: transparent; color: light-dark(rgb(0, 0, 0), rgb(255, 255, 255));&quot; data-end=&quot;1403&quot; data-start=&quot;1393&quot;&gt;garantia&lt;/code&gt;&lt;span style=&quot;background-color: transparent; color: light-dark(rgb(0, 0, 0), rgb(255, 255, 255));&quot;&gt;, etc.&lt;/span&gt;&lt;/p&gt;&lt;ul data-end=&quot;2064&quot; data-start=&quot;1280&quot;&gt;&lt;li data-end=&quot;1514&quot; data-start=&quot;1410&quot;&gt;&lt;p data-end=&quot;1514&quot; data-start=&quot;1412&quot;&gt;&lt;strong data-end=&quot;1430&quot; data-start=&quot;1412&quot;&gt;Fecha y origen&lt;/strong&gt;: &lt;code data-end=&quot;1451&quot; data-start=&quot;1432&quot;&gt;año matriculacion&lt;/code&gt;, &lt;code data-end=&quot;1472&quot; data-start=&quot;1453&quot;&gt;mes_matriculacion&lt;/code&gt;, &lt;code data-end=&quot;1496&quot; data-start=&quot;1474&quot;&gt;timestamp_extraccion&lt;/code&gt;, &lt;code data-end=&quot;1513&quot; data-start=&quot;1498&quot;&gt;id_extraccion&lt;/code&gt;.&lt;/p&gt;&lt;/li&gt;&lt;li data-end=&quot;1688&quot; data-start=&quot;1515&quot;&gt;&lt;p data-end=&quot;1532&quot; data-start=&quot;1517&quot;&gt;&lt;strong data-end=&quot;1531&quot; data-start=&quot;1517&quot;&gt;Relaciones&lt;/strong&gt;:&lt;/p&gt;&lt;ul data-end=&quot;1688&quot; data-start=&quot;1535&quot;&gt;&lt;li data-end=&quot;1593&quot; data-start=&quot;1535&quot;&gt;&lt;p data-end=&quot;1593&quot; data-start=&quot;1537&quot;&gt;&lt;code data-end=&quot;1551&quot; data-start=&quot;1537&quot;&gt;ubicacion_id&lt;/code&gt;: vincula al lugar donde está el vehículo.&lt;/p&gt;&lt;/li&gt;&lt;li data-end=&quot;1688&quot; data-start=&quot;1596&quot;&gt;&lt;p data-end=&quot;1688&quot; data-start=&quot;1598&quot;&gt;&lt;code data-end=&quot;1618&quot; data-start=&quot;1598&quot;&gt;tipo_carroceria_id&lt;/code&gt;, &lt;code data-end=&quot;1636&quot; data-start=&quot;1620&quot;&gt;combustible_id&lt;/code&gt;, &lt;code data-end=&quot;1654&quot; data-start=&quot;1638&quot;&gt;transmision_id&lt;/code&gt;: FK hacia sus respectivas tablas.&lt;/p&gt;&lt;/li&gt;&lt;/ul&gt;&lt;/li&gt;&lt;li data-end=&quot;1793&quot; data-start=&quot;1689&quot;&gt;&lt;p data-end=&quot;1793&quot; data-start=&quot;1691&quot;&gt;&lt;strong data-end=&quot;1706&quot; data-start=&quot;1691&quot;&gt;Coordenadas&lt;/strong&gt;: &lt;code data-end=&quot;1717&quot; data-start=&quot;1708&quot;&gt;latitud&lt;/code&gt;, &lt;code data-end=&quot;1729&quot; data-start=&quot;1719&quot;&gt;longitud&lt;/code&gt; (redundancia útil para evitar joins si se repiten ubicaciones).&lt;/p&gt;&lt;/li&gt;&lt;li data-end=&quot;1908&quot; data-start=&quot;1794&quot;&gt;&lt;ul data-end=&quot;1908&quot; data-start=&quot;1815&quot;&gt;&lt;li data-end=&quot;1908&quot; data-start=&quot;1815&quot;&gt;&lt;p data-end=&quot;1908&quot; data-start=&quot;1817&quot;&gt;&lt;code data-end=&quot;1842&quot; data-start=&quot;1817&quot;&gt;financiacion_disponible&lt;/code&gt;, &lt;code data-end=&quot;1852&quot; data-start=&quot;1844&quot;&gt;es_km0&lt;/code&gt;, &lt;code data-end=&quot;1863&quot; data-start=&quot;1854&quot;&gt;es_demo&lt;/code&gt;: booleanos para características adicionales.&lt;/p&gt;&lt;/li&gt;&lt;/ul&gt;&lt;/li&gt;&lt;li data-end=&quot;1966&quot; data-start=&quot;1909&quot;&gt;&lt;p data-end=&quot;1966&quot; data-start=&quot;1911&quot;&gt;&lt;strong data-end=&quot;1925&quot; data-start=&quot;1911&quot;&gt;Timestamps&lt;/strong&gt;: seguimiento de creación y modificación.&lt;/p&gt;&lt;/li&gt;&lt;li data-end=&quot;2064&quot; data-start=&quot;1967&quot;&gt;&lt;p data-end=&quot;2064&quot; data-start=&quot;1969&quot;&gt;&lt;strong data-end=&quot;1980&quot; data-start=&quot;1969&quot;&gt;Índices&lt;/strong&gt;: para consultas rápidas por &lt;code data-end=&quot;2016&quot; data-start=&quot;2009&quot;&gt;marca&lt;/code&gt;, &lt;code data-end=&quot;2026&quot; data-start=&quot;2018&quot;&gt;precio&lt;/code&gt;, &lt;code data-end=&quot;2041&quot; data-start=&quot;2028&quot;&gt;kilometraje&lt;/code&gt; y &lt;code data-end=&quot;2063&quot; data-start=&quot;2044&quot;&gt;año_matriculacion&lt;/code&gt;&lt;/p&gt;&lt;/li&gt;&lt;/ul&gt;" style="rounded=0;whiteSpace=wrap;html=1;" vertex="1" parent="1">
          <mxGeometry x="322" y="819" width="467" height="419" as="geometry" />
        </mxCell>
        <mxCell id="-_h2mMWwLCTI-qeB6oyW-4" value="&lt;p data-end=&quot;899&quot; data-start=&quot;786&quot;&gt;Lista de los &lt;strong data-end=&quot;823&quot; data-start=&quot;799&quot;&gt;tipos de combustible&lt;/strong&gt; que utilizan los vehículos, como Diésel, Gasolina, Eléctrico, Híbrido, etc.&lt;/p&gt;&lt;ul data-end=&quot;982&quot; data-start=&quot;901&quot;&gt;&lt;li data-end=&quot;953&quot; data-start=&quot;901&quot;&gt;&lt;p data-end=&quot;953&quot; data-start=&quot;903&quot;&gt;&lt;strong data-end=&quot;920&quot; data-start=&quot;903&quot;&gt;&lt;code data-end=&quot;918&quot; data-start=&quot;905&quot;&gt;combustible&lt;/code&gt;&lt;/strong&gt;: nombre del tipo de combustible.&lt;/p&gt;&lt;/li&gt;&lt;li data-end=&quot;982&quot; data-start=&quot;954&quot;&gt;&lt;p data-end=&quot;982&quot; data-start=&quot;956&quot;&gt;Cada combustible es único.&lt;/p&gt;&lt;/li&gt;&lt;/ul&gt;" style="rounded=0;whiteSpace=wrap;html=1;" vertex="1" parent="1">
          <mxGeometry x="15" y="-14" width="307" height="163" as="geometry" />
        </mxCell>
        <mxCell id="-_h2mMWwLCTI-qeB6oyW-5" value="&lt;p data-end=&quot;640&quot; data-start=&quot;537&quot;&gt;Contiene los &lt;strong data-end=&quot;573&quot; data-start=&quot;550&quot;&gt;tipos de carrocería&lt;/strong&gt; disponibles para los vehículos, como SUV, Berlina, Deportivo, etc.&lt;/p&gt;&lt;ul data-end=&quot;757&quot; data-start=&quot;642&quot;&gt;&lt;li data-end=&quot;709&quot; data-start=&quot;642&quot;&gt;&lt;p data-end=&quot;709&quot; data-start=&quot;644&quot;&gt;&lt;strong data-end=&quot;665&quot; data-start=&quot;644&quot;&gt;&lt;code data-end=&quot;663&quot; data-start=&quot;646&quot;&gt;tipo_carroceria&lt;/code&gt;&lt;/strong&gt;: descripción del tipo (único por registro).&lt;/p&gt;&lt;/li&gt;&lt;li data-end=&quot;757&quot; data-start=&quot;710&quot;&gt;&lt;p data-end=&quot;757&quot; data-start=&quot;712&quot;&gt;Se incluye la fecha de creación del registro.&lt;/p&gt;&lt;/li&gt;&lt;/ul&gt;" style="rounded=0;whiteSpace=wrap;html=1;" vertex="1" parent="1">
          <mxGeometry x="714" y="-38" width="366" height="99" as="geometry" />
        </mxCell>
      </root>
    </mxGraphModel>
  </diagram>
</mxfile>
